<?xml version="1.0" encoding="iso-8859-1"?>
<!-- Generator: Adobe Illustrator 19.0.0, SVG Export Plug-In . SVG Version: 6.00 Build 0)  -->
<svg version="1.1" id="Layer_1" xmlns="http://www.w3.org/2000/svg" xmlns:xlink="http://www.w3.org/1999/xlink" x="0px" y="0px"
	 viewBox="0 0 511.998 511.998" style="enable-background:new 0 0 511.998 511.998;" xml:space="preserve">
<g>
	<path style="fill:#C2C3C9;" d="M175.539,381.694l-22.624-22.626l-22.628-22.626l-112.5,57.585
		c21.09,21.09,15.81,70.303-7.127,107.296c36.993-22.937,86.205-28.22,107.296-7.127L175.539,381.694z"/>
	<polygon style="fill:#E6B263;" points="130.286,336.441 175.539,381.694 183.082,389.235 428.524,143.796 368.183,83.458 
		122.747,328.898 	"/>
	
		<rect x="370.79" y="77.204" transform="matrix(0.7071 0.7071 -0.7071 0.7071 190.7738 -263.4962)" style="fill:#F2D59F;" width="85.329" height="42.665"/>
	<path style="fill:#E6B263;" d="M398.355,53.289l60.337,60.337l30.167-30.167c16.594-16.596,16.596-43.747,0-60.339
		c-16.594-16.594-43.744-16.591-60.335,0L398.355,53.289z"/>
</g>
<g>
	<path style="fill:#000003;" d="M94.363,402.534l-0.513,0.512c-4.169,4.162-4.177,10.914-0.015,15.085
		c2.083,2.087,4.817,3.131,7.55,3.131c2.725,0,5.452-1.038,7.534-3.117l0.513-0.512c4.169-4.16,4.177-10.914,0.015-15.083
		C105.287,398.378,98.534,398.374,94.363,402.534z"/>
	<path style="fill:#000003;" d="M496.403,15.578C486.363,5.538,472.971,0.01,458.693,0.01c-14.279,0-27.669,5.529-37.711,15.568
		l-30.157,30.157c-0.004,0.004-0.009,0.006-0.012,0.011c-0.003,0.004-0.007,0.009-0.011,0.013l-30.138,30.136
		c-0.009,0.009-0.017,0.015-0.023,0.021c-0.009,0.009-0.015,0.017-0.021,0.022L115.204,321.356
		c-3.228,3.227-3.942,8.006-2.167,11.933l-100.109,51.24c-3.037,1.554-5.146,4.467-5.677,7.835c-0.53,3.371,0.582,6.789,2.995,9.202
		c16.345,16.347,12.304,60.337-8.651,94.136c-0.065,0.107-0.118,0.214-0.179,0.321c-0.084,0.146-0.171,0.289-0.247,0.439
		c-0.081,0.158-0.151,0.321-0.224,0.483c-0.084,0.188-0.165,0.373-0.239,0.564c-0.092,0.236-0.177,0.473-0.25,0.715
		c-0.035,0.112-0.061,0.229-0.09,0.341c-0.054,0.202-0.107,0.404-0.148,0.606c-0.025,0.121-0.044,0.242-0.065,0.361
		c-0.033,0.203-0.065,0.402-0.086,0.604c-0.014,0.123-0.025,0.244-0.033,0.367c-0.016,0.202-0.025,0.402-0.028,0.604
		c-0.003,0.123-0.006,0.243-0.004,0.367c0.004,0.206,0.015,0.411,0.029,0.617c0.01,0.116,0.015,0.234,0.027,0.35
		c0.023,0.227,0.059,0.452,0.098,0.677c0.015,0.092,0.025,0.186,0.044,0.279c0.061,0.304,0.133,0.604,0.221,0.902
		c0.035,0.123,0.08,0.242,0.119,0.363c0.061,0.183,0.119,0.367,0.191,0.546c0.054,0.135,0.113,0.269,0.173,0.402
		c0.07,0.164,0.145,0.325,0.225,0.485c0.067,0.133,0.135,0.262,0.208,0.394c0.09,0.16,0.183,0.319,0.282,0.477
		c0.075,0.118,0.15,0.24,0.229,0.356c0.119,0.175,0.249,0.343,0.378,0.512c0.073,0.094,0.142,0.19,0.217,0.282
		c0.213,0.256,0.437,0.509,0.678,0.75c0.257,0.258,0.526,0.5,0.805,0.727c1.956,1.598,4.345,2.396,6.737,2.396c0,0,0,0,0.002,0
		c0,0,0,0,0.001,0c0.003,0,0.005,0,0.01,0c0.427,0,0.854-0.035,1.28-0.087c0.117-0.015,0.235-0.033,0.352-0.05
		c0.364-0.059,0.725-0.131,1.083-0.225c0.07-0.019,0.14-0.031,0.21-0.052c0.427-0.123,0.846-0.275,1.259-0.45
		c0.079-0.035,0.156-0.073,0.235-0.111c0.355-0.16,0.701-0.343,1.039-0.546c0.05-0.029,0.103-0.05,0.153-0.079
		c18.983-11.772,42.168-18.799,62.02-18.799c14.165,0,25.571,3.604,32.114,10.15c2.413,2.411,5.83,3.527,9.202,2.994
		c3.369-0.531,6.282-2.642,7.837-5.677l51.241-100.11c1.393,0.629,2.889,0.956,4.389,0.956c2.731,0,5.46-1.042,7.542-3.125
		l245.406-245.405c0.013-0.011,0.025-0.021,0.035-0.031c0.013-0.013,0.02-0.025,0.033-0.035l30.117-30.119
		c0.006-0.004,0.013-0.011,0.018-0.015c0.005-0.006,0.011-0.013,0.016-0.019l30.152-30.151
		C517.196,70.202,517.196,36.369,496.403,15.578z M428.522,128.711L383.27,83.458l15.085-15.085l45.253,45.253L428.522,128.711z
		 M114.136,478.248c-9.706-5.261-21.849-7.991-35.838-7.991c-7.779,0-15.842,0.85-23.953,2.463l33.15-33.149
		c4.164-4.166,4.164-10.92-0.001-15.085c-4.165-4.164-10.919-4.164-15.084,0l-33.168,33.168c4.425-21.855,3.388-43.592-5.479-59.825
		l94.47-48.354l34.272,34.272L114.136,478.248z M183.082,374.149l-15.083-15.085l104.636-104.636c4.165-4.164,4.165-10.918,0-15.085
		c-4.164-4.164-10.918-4.164-15.085,0L152.913,343.981l-15.084-15.085L368.185,98.544l45.253,45.253L183.082,374.149z
		 M481.319,75.915l-22.626,22.626L413.44,53.289l22.626-22.626c6.01-6.01,14.046-9.32,22.626-9.32s16.616,3.311,22.626,9.32
		C493.796,43.137,493.796,63.439,481.319,75.915z"/>
	<path style="fill:#000003;" d="M294.482,217.497c-4.166-4.164-10.92-4.164-15.085,0l-0.181,0.179
		c-4.164,4.166-4.164,10.92,0,15.085c2.083,2.083,4.814,3.125,7.543,3.125s5.459-1.042,7.541-3.125l0.181-0.179
		C298.647,228.416,298.647,221.661,294.482,217.497z"/>
</g>
<g>
</g>
<g>
</g>
<g>
</g>
<g>
</g>
<g>
</g>
<g>
</g>
<g>
</g>
<g>
</g>
<g>
</g>
<g>
</g>
<g>
</g>
<g>
</g>
<g>
</g>
<g>
</g>
<g>
</g>
</svg>
