<?xml version="1.0" encoding="utf-8"?>
<!-- Generator: Adobe Illustrator 21.0.2, SVG Export Plug-In . SVG Version: 6.00 Build 0)  -->
<svg version="1.1" id="Layer_1" xmlns="http://www.w3.org/2000/svg" xmlns:xlink="http://www.w3.org/1999/xlink" x="0px" y="0px"
	 viewBox="0 0 512 512" style="enable-background:new 0 0 512 512;" xml:space="preserve">
<style type="text/css">
	.st0{fill:#FFF173;}
	.st1{fill:#005665;}
	.st2{fill:#579865;}
</style>
<circle class="st0" cx="256" cy="256" r="245.8"/>
<path class="st1" d="M75,437C26.6,388.7,0,324.4,0,256c0-68.4,26.6-132.7,75-181C123.3,26.6,187.6,0,256,0c68.4,0,132.7,26.6,181,75
	c48.4,48.4,75,112.6,75,181s-26.6,132.7-75,181c-48.4,48.4-112.6,75-181,75S123.3,485.4,75,437z M20.4,256
	c0,129.9,105.7,235.6,235.6,235.6S491.6,385.9,491.6,256S385.9,20.4,256,20.4S20.4,126.1,20.4,256z"/>
<polygon class="st2" points="349.2,77.8 252.3,77.8 162.8,256 252.3,434.2 349.2,434.2 259.7,256 "/>
<g>
	<path class="st1" d="M243.2,438.8l-89.5-178.2c-1.4-2.9-1.4-6.3,0-9.2l89.5-178.2c1.7-3.4,5.3-5.6,9.1-5.6h96.9
		c3.5,0,6.8,1.8,8.7,4.8c1.9,3,2,6.8,0.4,9.9L271.1,256l87.2,173.6c1.6,3.2,1.4,6.9-0.4,9.9c-1.9,3-5.1,4.8-8.7,4.8h-96.9
		C248.4,444.4,244.9,442.2,243.2,438.8z M250.6,260.6c-1.4-2.9-1.4-6.3,0-9.2l82-163.4h-74l-84.3,168l84.3,168h74L250.6,260.6z"/>
	<path class="st1" d="M200.4,469.2C143.8,454.5,94.6,417,65.2,366.2c-2.8-4.9-1.2-11.1,3.7-13.9c4.9-2.8,11.1-1.2,13.9,3.7
		c26.7,46.1,71.4,80.2,122.7,93.5c5.5,1.4,8.7,7,7.3,12.4c-1.2,4.6-5.3,7.6-9.9,7.6C202.1,469.6,201.3,469.4,200.4,469.2z"/>
	<path class="st1" d="M49.6,333.2c-1.1-2.9-2.1-5.8-3.1-8.8c-1.7-5.4,1.2-11.1,6.5-12.9c5.4-1.7,11.1,1.2,12.9,6.5
		c0.9,2.6,1.8,5.3,2.8,7.9c2,5.3-0.7,11.2-6,13.1c-1.2,0.4-2.4,0.6-3.6,0.6C55,339.8,51.1,337.3,49.6,333.2z"/>
</g>
</svg>
